<?xml version="1.0" encoding="UTF-8"?>
<svg xmlns="http://www.w3.org/2000/svg" version="1.1" xmlns:xlink="http://www.w3.org/1999/xlink" viewBox="0 0 74 61">
  <defs>
    <style>
      .cls-1 {
        fill: #00b7b0;
      }

      .cls-2 {
        fill: url(#Degradado_sin_nombre_58);
      }

      .cls-3 {
        fill: url(#Degradado_sin_nombre_39);
      }

      .cls-4 {
        fill: url(#Degradado_sin_nombre_66);
      }
    </style>
    <linearGradient id="Degradado_sin_nombre_58" data-name="Degradado sin nombre 58" x1="10.1" y1="5.6" x2="29.6" y2="27.1" gradientUnits="userSpaceOnUse">
      <stop offset=".4" stop-color="#6ec2bc"/>
      <stop offset=".5" stop-color="#4abeb8"/>
      <stop offset=".6" stop-color="#2abbb4"/>
      <stop offset=".7" stop-color="#12b8b2"/>
      <stop offset=".7" stop-color="#04b7b0"/>
      <stop offset=".8" stop-color="#00b7b0"/>
    </linearGradient>
    <linearGradient id="Degradado_sin_nombre_39" data-name="Degradado sin nombre 39" x1="34.3" y1="28.5" x2="45.9" y2="4.1" gradientUnits="userSpaceOnUse">
      <stop offset=".4" stop-color="#96c121"/>
      <stop offset=".5" stop-color="#9ac329"/>
      <stop offset=".6" stop-color="#a8c93f"/>
      <stop offset=".8" stop-color="#bdd364"/>
      <stop offset=".8" stop-color="#c1d56a"/>
    </linearGradient>
    <linearGradient id="Degradado_sin_nombre_66" data-name="Degradado sin nombre 66" x1="4.6" y1="47.6" x2="59.9" y2="31.2" gradientUnits="userSpaceOnUse">
      <stop offset=".2" stop-color="#96c121"/>
      <stop offset="1" stop-color="#96c123"/>
    </linearGradient>
  </defs>
  <!-- Generator: Adobe Illustrator 28.7.6, SVG Export Plug-In . SVG Version: 1.2.0 Build 188)  -->
  <g>
    <g id="Capa_1">
      <g>
        <g>
          <path class="cls-2" d="M12.1,17.2c0-.1,0-.2,0-.3,0-1,.1-2,.2-3,.1-1.3.2-2.6.1-3.8,0-.7-.2-1.4-.3-2.1,0,0,0-.2,0-.3.1,0,.2,0,.3,0,1.3.4,2.6.6,4,.8.6,0,1.2,0,1.8.1,1.1,0,2.2.2,3.4.3,1.3.1,2.5.4,3.7.7,1.5.5,2.9,1.1,4,2.3,1,1,1.6,2.3,1.8,3.7.3,2.1,0,4.2-.6,6.2-.5,1.6-1.1,3.1-1.8,4.6,0,0,0,.1-.2.2,0,0,0-.2,0-.3,0-.5,0-1.1,0-1.6,0-1.8-.4-3.6-1.1-5.3-.8-1.7-1.7-3.3-2.7-4.8-.6-.8-1.2-1.6-1.8-2.4,0,0,0,0,0,0,0,0,0,0,0,0,0,.2.1.4.2.6.6,1.8,1.2,3.6,1.7,5.4.3,1,.4,2,.5,3,.1.8.1,1.5,0,2.3-.2,1.1-.7,1.5-1.8,1.3-.7-.1-1.4-.5-2-.8-1.1-.6-2.1-1.4-3-2.2-1.1-.9-2.1-1.9-3.1-2.9,0,0,0,0-.1,0,1.4,3.4,3.3,6.5,5.9,9.2,0,0,0,0,0,0,0,0-.1,0-.2,0-1.2,0-2.3-.2-3.4-.6-1.2-.4-2.3-1-3.1-1.9-.9-.9-1.4-2-1.8-3.2-.3-.9-.4-1.8-.4-2.7,0,0,0-.1,0-.2v-2.1ZM24.4,20.4c0-1.1-.9-2.5-2.2-2.9-.9-.2-1.6,0-2.3.6-.5.6-.7,1.2-.7,2,.1,1.3.7,2.2,1.9,2.7.8.3,1.5.3,2.2-.2.7-.5,1-1.2,1-2.2Z"/>
          <path class="cls-3" d="M35,28.8c0,0,.2-.1.3-.2,1.1-.5,2.2-1.2,3.2-2,.9-.7,1.6-1.6,2.2-2.5,1-1.4,1.9-2.9,2.7-4.5.4-.9.8-1.8,1.2-2.8,0,0,0,0,0-.1-.1.2-.3.3-.4.5-1.2,1.4-2.5,2.8-3.7,4.1-1.1,1.1-2.3,2-3.6,2.7-.4.2-.9.4-1.4.5-.5,0-.7-.2-1-.6-.3-.5-.5-1.1-.5-1.7-.2-1.9.2-3.8.5-5.6.2-1.1.5-2.2.8-3.2,0,0,0,0,0-.1-1.3,1.6-2.3,3.4-3.3,5.2,0-.2,0-.4,0-.6.1-1.3,0-2.6-.4-3.8-.1-.4-.3-.8-.5-1.2,0-.2,0-.3,0-.5.9-.8,1.8-1.5,2.8-2,1.7-.9,3.5-1.7,5.2-2.6,1.2-.6,2.2-1.2,3.2-2.1.2-.2.4-.4.7-.6h0c0,0,0,.1,0,.2.4,1.5.9,3,1.6,4.4.7,1.4,1.4,2.8,2,4.2.7,1.4,1.2,2.9,1.4,4.5,0,.2,0,.5.1.7v1.8c0,0,0,.1,0,.2-.2,1.8-1,3.2-2.4,4.4-.8.6-1.7,1.2-2.6,1.6-2.1.9-4.4,1.4-6.7,1.7-.4,0-.8,0-1.3.1h-.3ZM36.9,22.5c.2,0,.3,0,.5,0,1.6-.4,2.7-2,2.4-3.7-.2-1.3-1.6-2.1-2.9-1.7-1.4.4-2.4,2-2.2,3.5.2,1.1,1.1,2,2.2,2Z"/>
          <g>
            <path class="cls-1" d="M1.2,51.5v1.7h1.6v-1.7h1v4.4h-1v-1.8h-1.6v1.8H.2v-4.4h1Z"/>
            <path class="cls-1" d="M12.9,53.7c0,1.4-.9,2.3-2.1,2.3s-2.1-1-2.1-2.2.8-2.3,2.1-2.3,2.1,1,2.1,2.2ZM9.8,53.7c0,.9.4,1.5,1.1,1.5s1-.6,1-1.5-.4-1.5-1.1-1.5-1.1.6-1.1,1.5Z"/>
            <path class="cls-1" d="M17.9,54.9c.3.1.7.3,1.1.3s.7-.2.7-.5-.2-.4-.7-.6c-.7-.3-1.2-.7-1.2-1.3s.6-1.3,1.6-1.3.9.1,1.1.2l-.2.8c-.2,0-.5-.2-.9-.2s-.6.2-.6.4.2.4.8.6c.8.3,1.1.7,1.1,1.3s-.6,1.4-1.8,1.4-1-.1-1.2-.3l.2-.8Z"/>
            <path class="cls-1" d="M25.6,51.6c.3,0,.7,0,1.3,0s1,.1,1.3.3c.3.2.5.6.5,1s-.1.8-.4,1c-.3.3-.8.5-1.4.5s-.2,0-.3,0v1.6h-1v-4.3ZM26.6,53.6c0,0,.2,0,.3,0,.5,0,.8-.3.8-.7s-.3-.6-.8-.6-.3,0-.4,0v1.3Z"/>
            <path class="cls-1" d="M34.7,51.5v4.4h-1v-4.4h1Z"/>
            <path class="cls-1" d="M40.7,52.4h-1.2v-.8h3.4v.8h-1.2v3.5h-1v-3.5Z"/>
            <path class="cls-1" d="M48.2,54.8l-.3,1.1h-1l1.3-4.4h1.3l1.4,4.4h-1.1l-.3-1.1h-1.2ZM49.3,54l-.3-.9c0-.3-.2-.6-.2-.8h0c0,.3-.1.6-.2.8l-.3.9h1Z"/>
            <path class="cls-1" d="M55.7,51.5h1v3.5h1.7v.8h-2.7v-4.4Z"/>
            <path class="cls-1" d="M65.9,54.1h-1.6v1h1.8v.8h-2.8v-4.4h2.7v.8h-1.7v.9h1.6v.8Z"/>
            <path class="cls-1" d="M71.1,54.9c.3.1.7.3,1.1.3s.7-.2.7-.5-.2-.4-.7-.6c-.7-.3-1.2-.7-1.2-1.3s.6-1.3,1.6-1.3.9.1,1.1.2l-.2.8c-.2,0-.5-.2-.9-.2s-.6.2-.6.4.2.4.8.6c.8.3,1.1.7,1.1,1.3s-.6,1.4-1.8,1.4-1-.1-1.2-.3l.2-.8Z"/>
          </g>
        </g>
        <path class="cls-4" d="M15.6,28.8h1c0,0,.2,0,.3,0,.6,0,1.3.2,1.9.5.7.3,1.4.8,1.9,1.4.3.4.6.9.8,1.4,0,0,0,0,0,.2,0,0,0-.1.1-.2.3-.5.7-1,1.2-1.4.5-.5,1.1-.9,1.8-1.2.7-.4,1.5-.6,2.3-.7.2,0,.3,0,.4,0h1.1c.2,0,.3,0,.5,0,.6,0,1.2.2,1.8.4,1.3.5,2.1,1.3,2.7,2.5.4.8.5,1.7.5,2.6,0,3.1,0,6.3,0,9.4,0,.2,0,.4,0,.7,0,.2,0,.5.2.7,0,.2.2.3.3.3.2.1.5.1.7.2,0,0,.1,0,0-.2-.2-.6-.2-1.1-.3-1.7,0-.5,0-1.1,0-1.6.1-.7.4-1.3.8-1.8.5-.6,1.2-1.1,2-1.4.9-.4,1.9-.6,2.9-.7,1-.1,2-.3,2.9-.5.7-.2,1.4-.4,2-.7.3-.2.6-.3.8-.6.3-.4.4-.9.5-1.4,0-.4,0-.8,0-1.2-.2-.9-.6-1.6-1.5-2-.7-.4-1.5-.5-2.3-.5-.2,0-.4,0-.5,0-.5,0-1.1.1-1.6.3-.3,0-.7.2-1,.4,0,0,0,0,0,.1,0,0,0,0,.1,0,.6.1,1.2.3,1.7.7.3.2.5.5.6.9.1.4,0,.9,0,1.3-.1.5-.4.9-.9,1.2-.9.5-1.8.7-2.8.6-.7,0-1.3-.3-1.8-.7-.6-.4-.9-.9-1-1.6-.1-.6,0-1.1,0-1.7,0-.4.3-.9.5-1.2.2-.3.4-.5.6-.7.4-.4.9-.7,1.3-.9.6-.3,1.2-.5,1.8-.7.8-.2,1.6-.4,2.5-.4.3,0,.6,0,.9,0,.3,0,.6,0,.9,0,.6,0,1.3,0,1.9,0,.2,0,.5,0,.7,0,.5,0,1.1.1,1.6.2.7.1,1.5.3,2.1.7.7.4,1.3.9,1.7,1.6.4.7.7,1.4.9,2.2.1.7.2,1.4.2,2.2,0,2.6,0,5.1,0,7.7,0,.1,0,.3,0,.4,0,.3,0,.5.1.8,0,.3.3.4.5.5.5,0,.9-.2,1.1-.6,0-.1,0-.2.1-.3.1-.4.1-.9.2-1.3,0-1.3,0-2.5,0-3.8,0-.6,0-1.2,0-1.8,0-.6.2-1.1.4-1.7.2-.6.4-1.2.8-1.8.4-.7.8-1.3,1.4-1.8.2-.2.5-.5.7-.7.7-.5,1.4-1,2.2-1.3.6-.3,1.3-.5,2-.6.6-.1,1.3-.2,1.9-.3.8,0,1.6,0,2.3.1,1.2.2,2.3.5,3.3,1.1.5.3,1,.6,1.4,1,.4.4.8.9,1.1,1.4.4.7.6,1.4.7,2.2,0,0,0,0,0,.1v1.1c0,0,0,.2,0,.3,0,.6-.3,1.1-.6,1.5-.5.8-1.2,1.4-2.2,1.5-.4,0-.7,0-1.1,0-.5,0-1.1-.1-1.5-.4-.3-.1-.6-.3-.9-.5-.4-.3-.6-.8-.7-1.2,0-.4,0-.8,0-1.3,0-.4.1-.7.3-1,.3-.6.8-1,1.5-1.3.4-.1.7-.2,1.1-.2,0,0,0,0,.1,0-.2-.3-.5-.5-.8-.7-.4-.2-.7-.4-1.1-.5-.5-.1-1.1-.2-1.6-.1-.8.1-1.4.5-2,1-.4.4-.7,1-.9,1.5-.4,1.1-.6,2.2-.7,3.4,0,.6,0,1.3,0,1.9,0,.6,0,1.2.2,1.8.1.8.3,1.5.7,2.2.4.6.9,1,1.5,1.3.5.2,1.1.3,1.7.2.9,0,1.5-.4,2.1-1.1.4-.4.6-.9.7-1.5,0-.3.1-.6.2-.9,0-.1,0-.1.2-.1,0,0,.1,0,.2,0,1.2,0,2.4,0,3.7,0v.5s0,0,0,.1c0,.3,0,.6-.1.9-.1.8-.4,1.5-.8,2.2-.4.7-1,1.3-1.7,1.8-.7.5-1.4.9-2.2,1.1-.7.2-1.5.3-2.2.4-.2,0-.3,0-.5,0h-1.4s0,0-.1,0c-.5,0-.9,0-1.4-.2-1-.1-1.9-.4-2.8-.8-1.1-.5-2-1.2-2.7-2.1,0,0,0,0-.1-.1,0,0,0,.1,0,.1,0,.2-.1.4-.2.6-.2.5-.4.9-.8,1.2-.4.4-.8.6-1.3.8-.8.3-1.7.4-2.6.4-.1,0-.2,0-.3,0-.4,0-.9,0-1.3,0-.7,0-1.4-.3-2.1-.7-.4-.2-.7-.5-1-.8-.3-.3-.5-.7-.6-1.1,0,0,0-.1-.1-.2,0,0-.1.2-.2.2-.4.4-.7.7-1.1,1.1-.6.5-1.3.8-2,1.1-.8.3-1.7.4-2.6.4-.4,0-.7,0-1.1,0-4.9,0-9.9,0-14.8,0s-.1,0-.2,0c-.2,0-.2,0-.2-.2,0-1,0-1.9,0-2.9,0-.2,0-.2.2-.2.3,0,.5,0,.8,0,.6,0,.8-.3,1-.8,0,0,0,0,0,0,0-.3.1-.7.1-1,0-2.3,0-4.7,0-7,0-.3,0-.7,0-1,0-.4,0-.8-.2-1.2-.2-.6-.4-1.1-.9-1.5-.3-.3-.6-.4-1-.5-.6,0-1.1,0-1.7.1-.6.2-1,.5-1.2,1.1-.3.5-.4,1.1-.4,1.6,0,3.1,0,6.3,0,9.4,0,0,0,0,0,.1,0,.1,0,.2,0,.4,0,.2.2.3.3.3,0,0,.1,0,.2,0,.4,0,.7,0,1.1,0,.2,0,.2,0,.2.2,0,0,0,0,0,0,0,.9,0,1.8,0,2.7,0,0,0,0,0,0,0,.1,0,.1-.2.1,0,0-.1,0-.2,0-3.4,0-6.7,0-10.1,0s0,0-.1,0c-.2,0-.2,0-.2-.2,0,0,0,0,0,0,0-.9,0-1.8,0-2.7,0,0,0,0,0-.1,0,0,0-.1.1-.1.1,0,.3,0,.4,0,.2,0,.4,0,.6,0,.4,0,.7-.3.8-.7,0-.2.1-.5.1-.7,0-2.5,0-5,0-7.5,0-.6,0-1.1,0-1.7,0-.3,0-.7-.2-1-.2-.8-.7-1.3-1.6-1.4-.3,0-.6,0-1,0-1,0-1.7.5-2.2,1.4-.3.6-.4,1.2-.4,1.9,0,3,0,6,0,9.1,0,0,0,0,0,.1,0,.3.2.5.5.6.1,0,.3,0,.4,0,.3,0,.6,0,.9,0,.2,0,.2,0,.2.2,0,.9,0,1.8,0,2.7q0,.3-.3.3c-2.1,0-4.3,0-6.4,0-1.7,0-3.5,0-5.2,0v-3.2c.5,0,.9,0,1.4,0,.2,0,.5,0,.7,0,.6,0,.8-.3,1-.8,0,0,0-.1,0-.2,0-.2,0-.4,0-.7,0-.6,0-1.2,0-1.8,0-2.7,0-5.3,0-8,0-.3,0-.6-.1-.9-.1-.4-.4-.6-.9-.7-.2,0-.4,0-.5,0-.4,0-.8,0-1.3,0-.2,0-.2,0-.2-.2,0-1.1,0-2.2,0-3.2,0-.2,0-.3.3-.3,2.9,0,5.9,0,8.8,0,.3,0,.3,0,.3.3,0,1.1,0,2.1,0,3.2,0,0,0,.1,0,.2,0,0,0,0,0,.1,0,0,0-.1.1-.2.3-.5.6-.9,1-1.4.3-.4.7-.7,1.1-1,1-.7,2.1-1.1,3.2-1.2.2,0,.3,0,.5,0ZM47,39.1s0,0,0,0c0,0,0,0-.1,0-.5.3-1,.5-1.5.7-.6.2-1.1.4-1.7.7-.4.2-.8.5-1.1.8-.3.3-.5.7-.6,1.1,0,.2,0,.4,0,.6,0,.3,0,.6.1.8,0,.3.2.5.4.7.3.3.7.4,1.1.5.5,0,.9,0,1.4,0,.8-.2,1.4-.6,1.7-1.3.3-.5.4-1.1.4-1.6,0-1,0-1.9,0-2.9,0,0,0,0,0-.2Z"/>
      </g>
    </g>
  </g>
</svg>